<mxfile host="app.diagrams.net" modified="2023-06-21T22:03:52.553Z" agent="5.0 (Windows NT 10.0; Win64; x64) AppleWebKit/537.36 (KHTML, like Gecko) Chrome/114.0.0.0 Safari/537.36" etag="vG62HHRFB3La4E6_Rdgg" version="21.0.2" type="github">
  <diagram name="Page-1" id="jhrjBW9a0C2SVgo-CWRU">
    <mxGraphModel dx="913" dy="505" grid="1" gridSize="10" guides="1" tooltips="1" connect="1" arrows="1" fold="1" page="1" pageScale="1" pageWidth="850" pageHeight="1100" math="0" shadow="0">
      <root>
        <mxCell id="0" />
        <mxCell id="1" parent="0" />
        <mxCell id="G8aZs1uHEPbQJze8aGuv-1" value="USES" style="whiteSpace=wrap;html=1;aspect=fixed;" vertex="1" parent="1">
          <mxGeometry x="270" y="160" width="60" height="60" as="geometry" />
        </mxCell>
        <mxCell id="G8aZs1uHEPbQJze8aGuv-2" value="USERNAME" style="ellipse;whiteSpace=wrap;html=1;" vertex="1" parent="1">
          <mxGeometry x="120" y="120" width="80" height="50" as="geometry" />
        </mxCell>
        <mxCell id="G8aZs1uHEPbQJze8aGuv-3" value="" style="endArrow=none;html=1;rounded=0;exitX=0;exitY=0.5;exitDx=0;exitDy=0;entryX=0.98;entryY=0.788;entryDx=0;entryDy=0;entryPerimeter=0;" edge="1" parent="1" source="G8aZs1uHEPbQJze8aGuv-1" target="G8aZs1uHEPbQJze8aGuv-2">
          <mxGeometry width="50" height="50" relative="1" as="geometry">
            <mxPoint x="400" y="290" as="sourcePoint" />
            <mxPoint x="450" y="240" as="targetPoint" />
          </mxGeometry>
        </mxCell>
        <mxCell id="G8aZs1uHEPbQJze8aGuv-4" value="PASSWORD" style="ellipse;whiteSpace=wrap;html=1;" vertex="1" parent="1">
          <mxGeometry x="120" y="40" width="80" height="50" as="geometry" />
        </mxCell>
        <mxCell id="G8aZs1uHEPbQJze8aGuv-5" value="" style="endArrow=none;html=1;rounded=0;exitX=0;exitY=0.25;exitDx=0;exitDy=0;entryX=1;entryY=1;entryDx=0;entryDy=0;" edge="1" parent="1" source="G8aZs1uHEPbQJze8aGuv-1" target="G8aZs1uHEPbQJze8aGuv-4">
          <mxGeometry width="50" height="50" relative="1" as="geometry">
            <mxPoint x="280" y="200" as="sourcePoint" />
            <mxPoint x="218" y="169" as="targetPoint" />
          </mxGeometry>
        </mxCell>
        <mxCell id="G8aZs1uHEPbQJze8aGuv-6" value="EMAIL" style="ellipse;whiteSpace=wrap;html=1;" vertex="1" parent="1">
          <mxGeometry x="220" y="30" width="80" height="50" as="geometry" />
        </mxCell>
        <mxCell id="G8aZs1uHEPbQJze8aGuv-7" value="" style="endArrow=none;html=1;rounded=0;entryX=0.5;entryY=1;entryDx=0;entryDy=0;" edge="1" parent="1" target="G8aZs1uHEPbQJze8aGuv-6">
          <mxGeometry width="50" height="50" relative="1" as="geometry">
            <mxPoint x="300" y="160" as="sourcePoint" />
            <mxPoint x="308" y="159" as="targetPoint" />
          </mxGeometry>
        </mxCell>
        <mxCell id="G8aZs1uHEPbQJze8aGuv-8" value="ISADMIN" style="ellipse;whiteSpace=wrap;html=1;" vertex="1" parent="1">
          <mxGeometry x="120" y="190" width="80" height="50" as="geometry" />
        </mxCell>
        <mxCell id="G8aZs1uHEPbQJze8aGuv-9" value="" style="endArrow=none;html=1;rounded=0;exitX=0;exitY=0.75;exitDx=0;exitDy=0;" edge="1" parent="1" source="G8aZs1uHEPbQJze8aGuv-1">
          <mxGeometry width="50" height="50" relative="1" as="geometry">
            <mxPoint x="250" y="260" as="sourcePoint" />
            <mxPoint x="200" y="220" as="targetPoint" />
          </mxGeometry>
        </mxCell>
        <mxCell id="G8aZs1uHEPbQJze8aGuv-10" value="ID" style="ellipse;whiteSpace=wrap;html=1;" vertex="1" parent="1">
          <mxGeometry x="120" y="270" width="80" height="50" as="geometry" />
        </mxCell>
        <mxCell id="G8aZs1uHEPbQJze8aGuv-11" value="" style="endArrow=none;html=1;rounded=0;exitX=-0.04;exitY=0.897;exitDx=0;exitDy=0;entryX=0.965;entryY=0.268;entryDx=0;entryDy=0;entryPerimeter=0;exitPerimeter=0;" edge="1" parent="1" target="G8aZs1uHEPbQJze8aGuv-10" source="G8aZs1uHEPbQJze8aGuv-1">
          <mxGeometry width="50" height="50" relative="1" as="geometry">
            <mxPoint x="280" y="215" as="sourcePoint" />
            <mxPoint x="440" y="320" as="targetPoint" />
          </mxGeometry>
        </mxCell>
        <mxCell id="G8aZs1uHEPbQJze8aGuv-12" value="CÃ“" style="rhombus;whiteSpace=wrap;html=1;" vertex="1" parent="1">
          <mxGeometry x="420" y="160" width="80" height="80" as="geometry" />
        </mxCell>
        <mxCell id="G8aZs1uHEPbQJze8aGuv-13" value="STORY" style="whiteSpace=wrap;html=1;aspect=fixed;" vertex="1" parent="1">
          <mxGeometry x="720" y="180" width="60" height="60" as="geometry" />
        </mxCell>
        <mxCell id="G8aZs1uHEPbQJze8aGuv-14" value="" style="endArrow=none;html=1;rounded=0;exitX=0;exitY=1;exitDx=0;exitDy=0;entryX=0;entryY=0.5;entryDx=0;entryDy=0;" edge="1" parent="1" source="G8aZs1uHEPbQJze8aGuv-16" target="G8aZs1uHEPbQJze8aGuv-12">
          <mxGeometry width="50" height="50" relative="1" as="geometry">
            <mxPoint x="370" y="240" as="sourcePoint" />
            <mxPoint x="370" y="320" as="targetPoint" />
          </mxGeometry>
        </mxCell>
        <mxCell id="G8aZs1uHEPbQJze8aGuv-15" value="" style="endArrow=none;html=1;rounded=0;exitX=1;exitY=0.5;exitDx=0;exitDy=0;entryX=0;entryY=0.39;entryDx=0;entryDy=0;entryPerimeter=0;" edge="1" parent="1" source="G8aZs1uHEPbQJze8aGuv-12" target="G8aZs1uHEPbQJze8aGuv-13">
          <mxGeometry width="50" height="50" relative="1" as="geometry">
            <mxPoint x="430" y="360" as="sourcePoint" />
            <mxPoint x="490" y="460" as="targetPoint" />
          </mxGeometry>
        </mxCell>
        <mxCell id="G8aZs1uHEPbQJze8aGuv-16" value="1" style="text;html=1;strokeColor=none;fillColor=none;align=center;verticalAlign=middle;whiteSpace=wrap;rounded=0;" vertex="1" parent="1">
          <mxGeometry x="330" y="170" width="60" height="30" as="geometry" />
        </mxCell>
        <mxCell id="G8aZs1uHEPbQJze8aGuv-17" value="N" style="text;html=1;strokeColor=none;fillColor=none;align=center;verticalAlign=middle;whiteSpace=wrap;rounded=0;" vertex="1" parent="1">
          <mxGeometry x="660" y="170" width="60" height="30" as="geometry" />
        </mxCell>
        <mxCell id="G8aZs1uHEPbQJze8aGuv-20" value="ID" style="ellipse;whiteSpace=wrap;html=1;" vertex="1" parent="1">
          <mxGeometry x="740" y="70" width="80" height="50" as="geometry" />
        </mxCell>
        <mxCell id="G8aZs1uHEPbQJze8aGuv-21" value="" style="endArrow=none;html=1;rounded=0;exitX=0.75;exitY=0;exitDx=0;exitDy=0;" edge="1" parent="1" target="G8aZs1uHEPbQJze8aGuv-20" source="G8aZs1uHEPbQJze8aGuv-13">
          <mxGeometry width="50" height="50" relative="1" as="geometry">
            <mxPoint x="700" y="210" as="sourcePoint" />
            <mxPoint x="862" y="346" as="targetPoint" />
          </mxGeometry>
        </mxCell>
        <mxCell id="G8aZs1uHEPbQJze8aGuv-22" value="NAME" style="ellipse;whiteSpace=wrap;html=1;" vertex="1" parent="1">
          <mxGeometry x="670" y="60" width="80" height="50" as="geometry" />
        </mxCell>
        <mxCell id="G8aZs1uHEPbQJze8aGuv-23" value="" style="endArrow=none;html=1;rounded=0;exitX=0.5;exitY=0;exitDx=0;exitDy=0;entryX=0.5;entryY=1;entryDx=0;entryDy=0;" edge="1" parent="1" target="G8aZs1uHEPbQJze8aGuv-22" source="G8aZs1uHEPbQJze8aGuv-13">
          <mxGeometry width="50" height="50" relative="1" as="geometry">
            <mxPoint x="670" y="160" as="sourcePoint" />
            <mxPoint x="842" y="266" as="targetPoint" />
          </mxGeometry>
        </mxCell>
        <mxCell id="G8aZs1uHEPbQJze8aGuv-24" value="DESCRIPTION" style="ellipse;whiteSpace=wrap;html=1;" vertex="1" parent="1">
          <mxGeometry x="550" y="210" width="100" height="50" as="geometry" />
        </mxCell>
        <mxCell id="G8aZs1uHEPbQJze8aGuv-25" value="" style="endArrow=none;html=1;rounded=0;exitX=0;exitY=0.75;exitDx=0;exitDy=0;entryX=0.965;entryY=0.268;entryDx=0;entryDy=0;entryPerimeter=0;" edge="1" parent="1" target="G8aZs1uHEPbQJze8aGuv-24" source="G8aZs1uHEPbQJze8aGuv-13">
          <mxGeometry width="50" height="50" relative="1" as="geometry">
            <mxPoint x="720" y="310" as="sourcePoint" />
            <mxPoint x="872" y="311" as="targetPoint" />
          </mxGeometry>
        </mxCell>
        <mxCell id="G8aZs1uHEPbQJze8aGuv-26" value="IMAGE" style="ellipse;whiteSpace=wrap;html=1;" vertex="1" parent="1">
          <mxGeometry x="620" y="250" width="80" height="50" as="geometry" />
        </mxCell>
        <mxCell id="G8aZs1uHEPbQJze8aGuv-27" value="" style="endArrow=none;html=1;rounded=0;exitX=0;exitY=1;exitDx=0;exitDy=0;entryX=0.73;entryY=0.016;entryDx=0;entryDy=0;entryPerimeter=0;" edge="1" parent="1" target="G8aZs1uHEPbQJze8aGuv-26" source="G8aZs1uHEPbQJze8aGuv-13">
          <mxGeometry width="50" height="50" relative="1" as="geometry">
            <mxPoint x="770" y="370" as="sourcePoint" />
            <mxPoint x="922" y="371" as="targetPoint" />
          </mxGeometry>
        </mxCell>
        <mxCell id="G8aZs1uHEPbQJze8aGuv-28" value="TYPEID" style="ellipse;whiteSpace=wrap;html=1;" vertex="1" parent="1">
          <mxGeometry x="780" y="280" width="80" height="50" as="geometry" />
        </mxCell>
        <mxCell id="G8aZs1uHEPbQJze8aGuv-29" value="" style="endArrow=none;html=1;rounded=0;exitX=1;exitY=1;exitDx=0;exitDy=0;entryX=0.5;entryY=0;entryDx=0;entryDy=0;" edge="1" parent="1" target="G8aZs1uHEPbQJze8aGuv-28" source="G8aZs1uHEPbQJze8aGuv-13">
          <mxGeometry width="50" height="50" relative="1" as="geometry">
            <mxPoint x="735" y="287.5" as="sourcePoint" />
            <mxPoint x="1042" y="371" as="targetPoint" />
          </mxGeometry>
        </mxCell>
        <mxCell id="G8aZs1uHEPbQJze8aGuv-30" value="AUTHORID&lt;br&gt;" style="ellipse;whiteSpace=wrap;html=1;" vertex="1" parent="1">
          <mxGeometry x="840" y="230" width="80" height="50" as="geometry" />
        </mxCell>
        <mxCell id="G8aZs1uHEPbQJze8aGuv-31" value="" style="endArrow=none;html=1;rounded=0;exitX=1;exitY=0.75;exitDx=0;exitDy=0;entryX=0;entryY=0;entryDx=0;entryDy=0;" edge="1" parent="1" target="G8aZs1uHEPbQJze8aGuv-30" source="G8aZs1uHEPbQJze8aGuv-13">
          <mxGeometry width="50" height="50" relative="1" as="geometry">
            <mxPoint x="950" y="335" as="sourcePoint" />
            <mxPoint x="1102" y="336" as="targetPoint" />
          </mxGeometry>
        </mxCell>
        <mxCell id="G8aZs1uHEPbQJze8aGuv-32" value="NOTE" style="ellipse;whiteSpace=wrap;html=1;" vertex="1" parent="1">
          <mxGeometry x="820" y="170" width="80" height="50" as="geometry" />
        </mxCell>
        <mxCell id="G8aZs1uHEPbQJze8aGuv-33" value="" style="endArrow=none;html=1;rounded=0;exitX=1;exitY=0.5;exitDx=0;exitDy=0;entryX=0;entryY=0.5;entryDx=0;entryDy=0;" edge="1" parent="1" target="G8aZs1uHEPbQJze8aGuv-32" source="G8aZs1uHEPbQJze8aGuv-13">
          <mxGeometry width="50" height="50" relative="1" as="geometry">
            <mxPoint x="970" y="250" as="sourcePoint" />
            <mxPoint x="1122" y="251" as="targetPoint" />
          </mxGeometry>
        </mxCell>
        <mxCell id="G8aZs1uHEPbQJze8aGuv-35" value="ISPUBLISH" style="ellipse;whiteSpace=wrap;html=1;" vertex="1" parent="1">
          <mxGeometry x="820" y="110" width="80" height="50" as="geometry" />
        </mxCell>
        <mxCell id="G8aZs1uHEPbQJze8aGuv-36" value="" style="endArrow=none;html=1;rounded=0;exitX=1;exitY=0.25;exitDx=0;exitDy=0;entryX=0;entryY=0.5;entryDx=0;entryDy=0;" edge="1" parent="1" target="G8aZs1uHEPbQJze8aGuv-35" source="G8aZs1uHEPbQJze8aGuv-13">
          <mxGeometry width="50" height="50" relative="1" as="geometry">
            <mxPoint x="790" y="200" as="sourcePoint" />
            <mxPoint x="1162" y="201" as="targetPoint" />
          </mxGeometry>
        </mxCell>
        <mxCell id="G8aZs1uHEPbQJze8aGuv-37" value="CHAPTERSTORY" style="whiteSpace=wrap;html=1;aspect=fixed;" vertex="1" parent="1">
          <mxGeometry x="370" y="635" width="100" height="100" as="geometry" />
        </mxCell>
        <mxCell id="G8aZs1uHEPbQJze8aGuv-38" value="ID" style="ellipse;whiteSpace=wrap;html=1;" vertex="1" parent="1">
          <mxGeometry x="220" y="600" width="80" height="50" as="geometry" />
        </mxCell>
        <mxCell id="G8aZs1uHEPbQJze8aGuv-39" value="" style="endArrow=none;html=1;rounded=0;entryX=0.965;entryY=0.268;entryDx=0;entryDy=0;entryPerimeter=0;exitX=0;exitY=0.5;exitDx=0;exitDy=0;" edge="1" parent="1" source="G8aZs1uHEPbQJze8aGuv-37" target="G8aZs1uHEPbQJze8aGuv-38">
          <mxGeometry width="50" height="50" relative="1" as="geometry">
            <mxPoint x="345" y="817.5" as="sourcePoint" />
            <mxPoint x="557" y="913.5" as="targetPoint" />
          </mxGeometry>
        </mxCell>
        <mxCell id="G8aZs1uHEPbQJze8aGuv-40" value="NAME" style="ellipse;whiteSpace=wrap;html=1;" vertex="1" parent="1">
          <mxGeometry x="190" y="680" width="80" height="50" as="geometry" />
        </mxCell>
        <mxCell id="G8aZs1uHEPbQJze8aGuv-41" value="" style="endArrow=none;html=1;rounded=0;exitX=0;exitY=0.75;exitDx=0;exitDy=0;" edge="1" parent="1" source="G8aZs1uHEPbQJze8aGuv-37" target="G8aZs1uHEPbQJze8aGuv-40">
          <mxGeometry width="50" height="50" relative="1" as="geometry">
            <mxPoint x="365" y="727.5" as="sourcePoint" />
            <mxPoint x="287.20000000000005" y="693.4000000000001" as="targetPoint" />
          </mxGeometry>
        </mxCell>
        <mxCell id="G8aZs1uHEPbQJze8aGuv-42" value="CONTENT" style="ellipse;whiteSpace=wrap;html=1;" vertex="1" parent="1">
          <mxGeometry x="250" y="790" width="100" height="50" as="geometry" />
        </mxCell>
        <mxCell id="G8aZs1uHEPbQJze8aGuv-43" value="" style="endArrow=none;html=1;rounded=0;exitX=0;exitY=1;exitDx=0;exitDy=0;entryX=0.965;entryY=0.268;entryDx=0;entryDy=0;entryPerimeter=0;" edge="1" parent="1" source="G8aZs1uHEPbQJze8aGuv-37" target="G8aZs1uHEPbQJze8aGuv-42">
          <mxGeometry width="50" height="50" relative="1" as="geometry">
            <mxPoint x="415" y="877.5" as="sourcePoint" />
            <mxPoint x="567" y="878.5" as="targetPoint" />
          </mxGeometry>
        </mxCell>
        <mxCell id="G8aZs1uHEPbQJze8aGuv-46" value="STORYID" style="ellipse;whiteSpace=wrap;html=1;" vertex="1" parent="1">
          <mxGeometry x="390" y="820" width="100" height="50" as="geometry" />
        </mxCell>
        <mxCell id="G8aZs1uHEPbQJze8aGuv-47" value="" style="endArrow=none;html=1;rounded=0;exitX=0.75;exitY=1;exitDx=0;exitDy=0;entryX=0.5;entryY=0;entryDx=0;entryDy=0;" edge="1" parent="1" source="G8aZs1uHEPbQJze8aGuv-37" target="G8aZs1uHEPbQJze8aGuv-46">
          <mxGeometry width="50" height="50" relative="1" as="geometry">
            <mxPoint x="430" y="855" as="sourcePoint" />
            <mxPoint x="460" y="810" as="targetPoint" />
          </mxGeometry>
        </mxCell>
        <mxCell id="G8aZs1uHEPbQJze8aGuv-50" value="NOTE" style="ellipse;whiteSpace=wrap;html=1;" vertex="1" parent="1">
          <mxGeometry x="520" y="770" width="80" height="50" as="geometry" />
        </mxCell>
        <mxCell id="G8aZs1uHEPbQJze8aGuv-51" value="" style="endArrow=none;html=1;rounded=0;exitX=1;exitY=0.5;exitDx=0;exitDy=0;entryX=0.285;entryY=-0.004;entryDx=0;entryDy=0;entryPerimeter=0;" edge="1" parent="1" source="G8aZs1uHEPbQJze8aGuv-37" target="G8aZs1uHEPbQJze8aGuv-50">
          <mxGeometry width="50" height="50" relative="1" as="geometry">
            <mxPoint x="665" y="817.5" as="sourcePoint" />
            <mxPoint x="817" y="818.5" as="targetPoint" />
          </mxGeometry>
        </mxCell>
        <mxCell id="G8aZs1uHEPbQJze8aGuv-53" value="" style="endArrow=none;html=1;rounded=0;exitX=1;exitY=0.25;exitDx=0;exitDy=0;entryX=0;entryY=1;entryDx=0;entryDy=0;" edge="1" parent="1" source="G8aZs1uHEPbQJze8aGuv-37" target="G8aZs1uHEPbQJze8aGuv-102">
          <mxGeometry width="50" height="50" relative="1" as="geometry">
            <mxPoint x="485" y="767.5" as="sourcePoint" />
            <mxPoint x="561.7157287525383" y="742.6776695296635" as="targetPoint" />
          </mxGeometry>
        </mxCell>
        <mxCell id="G8aZs1uHEPbQJze8aGuv-59" value="CÃ“" style="rhombus;whiteSpace=wrap;html=1;rotation=20;" vertex="1" parent="1">
          <mxGeometry x="575" y="430" width="80" height="80" as="geometry" />
        </mxCell>
        <mxCell id="G8aZs1uHEPbQJze8aGuv-60" value="" style="endArrow=none;html=1;rounded=0;entryX=0.5;entryY=1;entryDx=0;entryDy=0;" edge="1" parent="1" target="G8aZs1uHEPbQJze8aGuv-59" source="G8aZs1uHEPbQJze8aGuv-37">
          <mxGeometry width="50" height="50" relative="1" as="geometry">
            <mxPoint x="360" y="910" as="sourcePoint" />
            <mxPoint x="420" y="840" as="targetPoint" />
          </mxGeometry>
        </mxCell>
        <mxCell id="G8aZs1uHEPbQJze8aGuv-61" value="" style="endArrow=none;html=1;rounded=0;entryX=0.25;entryY=1;entryDx=0;entryDy=0;exitX=0.5;exitY=0;exitDx=0;exitDy=0;" edge="1" parent="1" source="G8aZs1uHEPbQJze8aGuv-59" target="G8aZs1uHEPbQJze8aGuv-13">
          <mxGeometry width="50" height="50" relative="1" as="geometry">
            <mxPoint x="460" y="730" as="sourcePoint" />
            <mxPoint x="710" y="460" as="targetPoint" />
          </mxGeometry>
        </mxCell>
        <mxCell id="G8aZs1uHEPbQJze8aGuv-62" value="N" style="text;html=1;strokeColor=none;fillColor=none;align=center;verticalAlign=middle;whiteSpace=wrap;rounded=0;" vertex="1" parent="1">
          <mxGeometry x="420" y="600" width="60" height="35" as="geometry" />
        </mxCell>
        <mxCell id="G8aZs1uHEPbQJze8aGuv-63" value="1" style="text;html=1;strokeColor=none;fillColor=none;align=center;verticalAlign=middle;whiteSpace=wrap;rounded=0;" vertex="1" parent="1">
          <mxGeometry x="690" y="240" width="60" height="30" as="geometry" />
        </mxCell>
        <mxCell id="G8aZs1uHEPbQJze8aGuv-65" value="TYPEID" style="whiteSpace=wrap;html=1;aspect=fixed;" vertex="1" parent="1">
          <mxGeometry x="710" y="590" width="60" height="60" as="geometry" />
        </mxCell>
        <mxCell id="G8aZs1uHEPbQJze8aGuv-68" value="TYPENAME" style="ellipse;whiteSpace=wrap;html=1;" vertex="1" parent="1">
          <mxGeometry x="820" y="595" width="80" height="50" as="geometry" />
        </mxCell>
        <mxCell id="G8aZs1uHEPbQJze8aGuv-69" value="" style="endArrow=none;html=1;rounded=0;exitX=1;exitY=0.5;exitDx=0;exitDy=0;entryX=0.01;entryY=0.252;entryDx=0;entryDy=0;entryPerimeter=0;" edge="1" parent="1" source="G8aZs1uHEPbQJze8aGuv-65" target="G8aZs1uHEPbQJze8aGuv-68">
          <mxGeometry width="50" height="50" relative="1" as="geometry">
            <mxPoint x="730" y="690" as="sourcePoint" />
            <mxPoint x="890" y="650" as="targetPoint" />
          </mxGeometry>
        </mxCell>
        <mxCell id="G8aZs1uHEPbQJze8aGuv-70" value="ID" style="ellipse;whiteSpace=wrap;html=1;" vertex="1" parent="1">
          <mxGeometry x="780" y="495" width="80" height="50" as="geometry" />
        </mxCell>
        <mxCell id="G8aZs1uHEPbQJze8aGuv-71" value="" style="endArrow=none;html=1;rounded=0;entryX=0.5;entryY=1;entryDx=0;entryDy=0;exitX=1;exitY=0.25;exitDx=0;exitDy=0;" edge="1" parent="1" target="G8aZs1uHEPbQJze8aGuv-70" source="G8aZs1uHEPbQJze8aGuv-65">
          <mxGeometry width="50" height="50" relative="1" as="geometry">
            <mxPoint x="750" y="650" as="sourcePoint" />
            <mxPoint x="758" y="649" as="targetPoint" />
          </mxGeometry>
        </mxCell>
        <mxCell id="G8aZs1uHEPbQJze8aGuv-73" value="1" style="text;html=1;strokeColor=none;fillColor=none;align=center;verticalAlign=middle;whiteSpace=wrap;rounded=0;" vertex="1" parent="1">
          <mxGeometry x="680" y="560" width="60" height="30" as="geometry" />
        </mxCell>
        <mxCell id="G8aZs1uHEPbQJze8aGuv-75" value="CÃ“" style="rhombus;whiteSpace=wrap;html=1;" vertex="1" parent="1">
          <mxGeometry x="700" y="365" width="80" height="80" as="geometry" />
        </mxCell>
        <mxCell id="G8aZs1uHEPbQJze8aGuv-76" value="" style="endArrow=none;html=1;rounded=0;exitX=0.5;exitY=1;exitDx=0;exitDy=0;entryX=0.5;entryY=0;entryDx=0;entryDy=0;" edge="1" parent="1" target="G8aZs1uHEPbQJze8aGuv-75" source="G8aZs1uHEPbQJze8aGuv-13">
          <mxGeometry width="50" height="50" relative="1" as="geometry">
            <mxPoint x="596" y="610" as="sourcePoint" />
            <mxPoint x="530" y="731" as="targetPoint" />
          </mxGeometry>
        </mxCell>
        <mxCell id="G8aZs1uHEPbQJze8aGuv-77" value="" style="endArrow=none;html=1;rounded=0;entryX=1;entryY=1;entryDx=0;entryDy=0;exitX=0.5;exitY=1;exitDx=0;exitDy=0;" edge="1" parent="1" source="G8aZs1uHEPbQJze8aGuv-75" target="G8aZs1uHEPbQJze8aGuv-73">
          <mxGeometry width="50" height="50" relative="1" as="geometry">
            <mxPoint x="730" y="505" as="sourcePoint" />
            <mxPoint x="630" y="820" as="targetPoint" />
          </mxGeometry>
        </mxCell>
        <mxCell id="G8aZs1uHEPbQJze8aGuv-78" value="1" style="text;html=1;strokeColor=none;fillColor=none;align=center;verticalAlign=middle;whiteSpace=wrap;rounded=0;" vertex="1" parent="1">
          <mxGeometry x="540" y="1341" width="60" height="30" as="geometry" />
        </mxCell>
        <mxCell id="G8aZs1uHEPbQJze8aGuv-80" value="N" style="text;html=1;strokeColor=none;fillColor=none;align=center;verticalAlign=middle;whiteSpace=wrap;rounded=0;" vertex="1" parent="1">
          <mxGeometry x="730" y="250" width="60" height="30" as="geometry" />
        </mxCell>
        <mxCell id="G8aZs1uHEPbQJze8aGuv-81" value="COMMENT" style="whiteSpace=wrap;html=1;aspect=fixed;" vertex="1" parent="1">
          <mxGeometry x="210" y="410" width="100" height="100" as="geometry" />
        </mxCell>
        <mxCell id="G8aZs1uHEPbQJze8aGuv-82" value="ID" style="ellipse;whiteSpace=wrap;html=1;" vertex="1" parent="1">
          <mxGeometry x="70" y="380" width="80" height="50" as="geometry" />
        </mxCell>
        <mxCell id="G8aZs1uHEPbQJze8aGuv-83" value="" style="endArrow=none;html=1;rounded=0;entryX=0.965;entryY=0.268;entryDx=0;entryDy=0;entryPerimeter=0;exitX=0;exitY=0.5;exitDx=0;exitDy=0;" edge="1" parent="1" source="G8aZs1uHEPbQJze8aGuv-81" target="G8aZs1uHEPbQJze8aGuv-82">
          <mxGeometry width="50" height="50" relative="1" as="geometry">
            <mxPoint x="150" y="517.5" as="sourcePoint" />
            <mxPoint x="362" y="613.5" as="targetPoint" />
          </mxGeometry>
        </mxCell>
        <mxCell id="G8aZs1uHEPbQJze8aGuv-84" value="CHAPTERID" style="ellipse;whiteSpace=wrap;html=1;" vertex="1" parent="1">
          <mxGeometry x="60" y="460" width="80" height="50" as="geometry" />
        </mxCell>
        <mxCell id="G8aZs1uHEPbQJze8aGuv-85" value="" style="endArrow=none;html=1;rounded=0;exitX=0;exitY=0.75;exitDx=0;exitDy=0;entryX=0.965;entryY=0.268;entryDx=0;entryDy=0;entryPerimeter=0;" edge="1" parent="1" source="G8aZs1uHEPbQJze8aGuv-81" target="G8aZs1uHEPbQJze8aGuv-84">
          <mxGeometry width="50" height="50" relative="1" as="geometry">
            <mxPoint x="170" y="427.5" as="sourcePoint" />
            <mxPoint x="342" y="533.5" as="targetPoint" />
          </mxGeometry>
        </mxCell>
        <mxCell id="G8aZs1uHEPbQJze8aGuv-86" value="BODY" style="ellipse;whiteSpace=wrap;html=1;" vertex="1" parent="1">
          <mxGeometry x="45" y="530" width="100" height="50" as="geometry" />
        </mxCell>
        <mxCell id="G8aZs1uHEPbQJze8aGuv-87" value="" style="endArrow=none;html=1;rounded=0;exitX=0;exitY=1;exitDx=0;exitDy=0;entryX=0.965;entryY=0.268;entryDx=0;entryDy=0;entryPerimeter=0;" edge="1" parent="1" source="G8aZs1uHEPbQJze8aGuv-81" target="G8aZs1uHEPbQJze8aGuv-86">
          <mxGeometry width="50" height="50" relative="1" as="geometry">
            <mxPoint x="220" y="577.5" as="sourcePoint" />
            <mxPoint x="372" y="578.5" as="targetPoint" />
          </mxGeometry>
        </mxCell>
        <mxCell id="G8aZs1uHEPbQJze8aGuv-90" value="DATE" style="ellipse;whiteSpace=wrap;html=1;" vertex="1" parent="1">
          <mxGeometry x="330" y="405" width="80" height="50" as="geometry" />
        </mxCell>
        <mxCell id="G8aZs1uHEPbQJze8aGuv-91" value="" style="endArrow=none;html=1;rounded=0;exitX=1;exitY=0.5;exitDx=0;exitDy=0;entryX=0;entryY=1;entryDx=0;entryDy=0;" edge="1" parent="1" source="G8aZs1uHEPbQJze8aGuv-81" target="G8aZs1uHEPbQJze8aGuv-90">
          <mxGeometry width="50" height="50" relative="1" as="geometry">
            <mxPoint x="470" y="517.5" as="sourcePoint" />
            <mxPoint x="622" y="518.5" as="targetPoint" />
          </mxGeometry>
        </mxCell>
        <mxCell id="G8aZs1uHEPbQJze8aGuv-95" value="N" style="text;html=1;strokeColor=none;fillColor=none;align=center;verticalAlign=middle;whiteSpace=wrap;rounded=0;" vertex="1" parent="1">
          <mxGeometry x="350" y="590" width="60" height="30" as="geometry" />
        </mxCell>
        <mxCell id="G8aZs1uHEPbQJze8aGuv-97" value="" style="endArrow=none;html=1;rounded=0;exitX=0.25;exitY=1;exitDx=0;exitDy=0;entryX=0.576;entryY=-0.01;entryDx=0;entryDy=0;entryPerimeter=0;" edge="1" parent="1" target="G8aZs1uHEPbQJze8aGuv-81" source="G8aZs1uHEPbQJze8aGuv-1">
          <mxGeometry width="50" height="50" relative="1" as="geometry">
            <mxPoint x="210" y="340" as="sourcePoint" />
            <mxPoint x="180" y="410" as="targetPoint" />
          </mxGeometry>
        </mxCell>
        <mxCell id="G8aZs1uHEPbQJze8aGuv-99" value="1" style="text;html=1;strokeColor=none;fillColor=none;align=center;verticalAlign=middle;whiteSpace=wrap;rounded=0;" vertex="1" parent="1">
          <mxGeometry x="240" y="230" width="60" height="30" as="geometry" />
        </mxCell>
        <mxCell id="G8aZs1uHEPbQJze8aGuv-102" value="ISPUBLISH" style="ellipse;whiteSpace=wrap;html=1;" vertex="1" parent="1">
          <mxGeometry x="495" y="580" width="80" height="50" as="geometry" />
        </mxCell>
        <mxCell id="G8aZs1uHEPbQJze8aGuv-104" value="" style="endArrow=none;html=1;rounded=0;exitX=0.5;exitY=1;exitDx=0;exitDy=0;entryX=0.25;entryY=0;entryDx=0;entryDy=0;" edge="1" parent="1" source="G8aZs1uHEPbQJze8aGuv-81" target="G8aZs1uHEPbQJze8aGuv-37">
          <mxGeometry width="50" height="50" relative="1" as="geometry">
            <mxPoint x="400" y="630" as="sourcePoint" />
            <mxPoint x="210" y="910" as="targetPoint" />
          </mxGeometry>
        </mxCell>
        <mxCell id="G8aZs1uHEPbQJze8aGuv-105" value="Actor" style="shape=umlActor;verticalLabelPosition=bottom;verticalAlign=top;html=1;outlineConnect=0;" vertex="1" parent="1">
          <mxGeometry x="85" y="1260" width="30" height="60" as="geometry" />
        </mxCell>
      </root>
    </mxGraphModel>
  </diagram>
</mxfile>
